<svg enable-background="new 0 0 1008 612" height="246.459302" viewBox="0 0 1008 612" width="405.746503" xmlns="http://www.w3.org/2000/svg" xmlns:xlink="http://www.w3.org/1999/xlink"><linearGradient id="a" gradientUnits="userSpaceOnUse" x1="814.8499" x2="908.9679" y1="146.5" y2="307.4915"><stop offset="0" stop-color="#eb2227"/><stop offset=".2472" stop-color="#fdee20"/><stop offset=".4888" stop-color="#10b04b"/><stop offset=".7191" stop-color="#23b7eb"/><stop offset="1" stop-color="#eb2227"/></linearGradient><path d="m646.4 527.3s.1 0 .1-.1c.3-.2.6-.6.9-.7z" fill="#fff"/><path d="m506.5 270.8-59.9 161.3-58.3-161.3h-44.3l-46 231.5h47.6l26.3-144.1 53.3 144.1h41l53.4-144.9 27.9 144.9h45.1l-41.8-231.5zm-330 115.3v42.7h73.1s-15.6 40.2-69.8 40.2c0 0-82.1 3.3-89.5-80.4 0 0-6.6-62.4 65.7-82.9 0 0 58.3-14 97.7 30.4l33.6-32s-32.8-41.9-110-45.6c0 0-135.4 1.3-135.4 130.5v2.5s.8 116.2 137.9 121.9c0 0 47.6 1.6 84.6-27.9 36.9-29.5 39.8-78.8 39.8-99.3h-127.7zm572.1-115.3h-48.4l-96.9 231.5h49.3l20.1-47.2h103.7l19.9 47.2h51.7zm-57.7 141.6 33.9-79.6 33.6 79.6z" fill="#0076c0"/><path d="m819.7 172.6s-51-11.4-67.8 7.2 3.6 49.8 26.4 63.6 48 35.4 92.4 43.8c0 0 20.4 7.8 30-31.2s28.8-142.8-5.4-144-48 85.2-48 85.2-4.8-113.4 51-114.6 63 119.4 62.4 155.4-15 109.8-91.8 84c-76.8-25.7-211.9-140.8-181.9-182.4 23.4-32.4 132.7 33 132.7 33z" fill="url(#a)"/></svg>